<svg xmlns="http://www.w3.org/2000/svg" xmlns:xlink="http://www.w3.org/1999/xlink" width="2948.8999" height="1440" viewBox="0 0 2948.8999 1440">
  <defs>
    <style>
      .a {
        fill: none;
      }

      .b {
        clip-path: url(#a);
      }

      .c, .d {
        opacity: 0.04;
        isolation: isolate;
      }

      .c {
        fill: url(#b);
      }

      .d {
        fill: url(#c);
      }

      .e {
        fill: url(#d);
      }
    </style>
    <clipPath id="a">
      <rect class="a" x="-8.6713" y="-15.4606" width="2972.4926" height="1468.3004"/>
    </clipPath>
    <radialGradient id="b" data-name="Dégradé sans nom" cx="1465.7913" cy="1645.5064" r="1210.878" gradientTransform="matrix(0.9975, -0.0704, -0.0714, -1.0119, 36.7669, 2483.433)" gradientUnits="userSpaceOnUse">
      <stop offset="0.0026"/>
      <stop offset="0.4317" stop-color="#6c6c6c"/>
      <stop offset="1" stop-color="#232323"/>
    </radialGradient>
    <radialGradient id="c" cx="1208.4307" cy="1766.2989" r="1169.4143" xlink:href="#b"/>
    <radialGradient id="d" data-name="Dégradé sans nom 2" cx="3152.1008" cy="399.6905" r="1167.922" gradientTransform="matrix(-0.5049, 0.8745, 3.4043, 2.0266, 1595.2576, -2938.5988)" gradientUnits="userSpaceOnUse">
      <stop offset="0.0026" stop-color="#d51b83"/>
      <stop offset="0.4317" stop-color="#337cae"/>
      <stop offset="1" stop-color="#4f1a3d"/>
    </radialGradient>
  </defs>
  <g class="b">
    <path class="c" d="M-151.6,1403.6c107.6-15.1,933.2-121.1,897.4-226.3-12.4-36.5-14.5-75.8-4-112.9C888.9,545,2198.5,1232.7,2907.5-69.8c-.1.1-323.6,23-323.6,23-144.7,207.2-344.8,397.7-603.2,509C776.9,605.8,711.9734,706.6871,130.1734,1288.9871c7.1,16.4,5.0265,191.1129,26.3265,189.8129"/>
    <path class="d" d="M-353.29,1294.9273c107.6-15.1,933.2-121.1,897.4-226.3-12.4-36.5,197.0671-249.0481,207.5671-286.1481C889.3378,296.408,1833.5278,1040.741,2562.3715,48.524c66.2135-90.14-3.5778-216.5053-115.1439-208.6014l-3.938.279a131.3257,131.3257,0,0,0-95.74,52.1934c-114.4647,152.4873-259.9377,292.9636-437.626,395.4156a626.5216,626.5216,0,0,1-233.4617,78.3859C675.9686,494.2606,231.974,687.7205-250.7871,1125.7594c-82.1368,74.5278-40.6752,210.9689,69.0452,227.1637,69.5763,10.27,128.3479,17.7049,136.5515,17.2042"/>
    <path class="e" d="M-49.5,1439l413.7-85.1c.1,0,92.1-18.8,140.7-30.8,9-2.2,54.3-14.4,77.3-21.9,111.4-36.6,231.3-132,155.6-208.8-118.3-119.6-34-252.8,327.2-367.1,382.2-121,706.2,19.8,1065.1-95.4C2497.4,512,2694.8,154.4,2824.4-153a2.75,2.75,0,0,0-2.7-3.8L2498-133.9a3.0368,3.0368,0,0,0-2.1,1.2c-136.5,199.8-327.7,380.5-569.4,493.5q-26.55,12.45-52.6,25.6c-156.1,79.4-405.7,100.4-620.6,133.5A1527.4734,1527.4734,0,0,0,862.1,635.1C248,909.6,280.3,1204.4-37.7,1281.9"/>
  </g>
</svg>
